<svg width="64" height="64" fill="none" xmlns="http://www.w3.org/2000/svg"><g clip-path="url(#prefix__clip0_27_96)"><path fill="#FF6B01" d="M0 0h64v64H0z"/><path d="M36.477 33.7c-.346-.138-.743-.116-1.114-.147-1.844-.143-3.054 1.14-4.43 2.124-2.01 1.438-4.64 1.037-6.304-.683-2.036-2.103-1.46-5.491.852-7.009 1.276-.835 2.635-1.04 4.077-.614 2.014.593 3.215 2.72 5.409 2.83 1.465.07 3.139-.822 4.026-1.998.823-1.09 1.353-1.764 1.591-2.025 2.837-3.106 6.83-4.17 10.713-2.134 4.397 2.306 6.05 7.92 3.495 12.263-.006.01-.035.083-.087.218a.313.313 0 01-.116.15.456.456 0 00-.122.12c-.577.828-1.03 1.373-1.36 1.635a13.08 13.08 0 01-.86.632c-4.255 2.88-8.785 1.838-12.035-1.92-.008-.008-.327-.44-.957-1.3a6.294 6.294 0 00-2.778-2.143zM17.272 35.392a3.12 3.12 0 100-6.24 3.12 3.12 0 000 6.24zM9.8 34.29a1.8 1.8 0 100-3.6 1.8 1.8 0 000 3.6z" fill="#fff"/></g><defs><clipPath id="prefix__clip0_27_96"><rect width="64" height="64" rx="32" fill="#fff"/></clipPath></defs></svg>